<svg height="512" viewBox="0 0 37 60" width="512" xmlns="http://www.w3.org/2000/svg"><g id="016---Cooking-Equipment" transform="translate(0 -1)"><path id="Shape" d="m12 22c0-10.51 0-9.73.07-10l1.56-3.9c.283873-.71277572.283873-1.50722428 0-2.22l-1.7-4.25c-.1321883-.332257-.4315923-.56875352-.7854294-.62040363-.3538371-.0516501-.7083511.08939311-.93.37-.22164887.2806069-.27675887.65814663-.1445706.99040363l1.7 4.26c.0946243.23759191.0946243.50240809 0 .74l-1.57 3.92c-.29.77-.2.44-.2 10.71.0059319.0851253.0227351.1691413.05.25-.64368058.3474351-1.04634816 1.0185477-1.05 1.75v27c.00365184.7314523.40631942 1.4025649 1.05 1.75-.05.25-.05-.16-.05 3.25 0 1.6568542-1.34314575 3-3 3s-3-1.3431458-3-3c0-3.44 0-3-.05-3.25.64368058-.3474351 1.04634816-1.0185477 1.05-1.75v-27c.00645369-.7209354-.37560992-1.3895467-1-1.75 0-.25 0 .75 0-9.86 0-.81-.14-1-1.77-5-.09462433-.23759191-.09462433-.50240809 0-.74l1.7-4.26c.20986818-.51362481-.03637521-1.10013177-.55000001-1.30999997-.51362481-.2098682-1.10013177.03637517-1.30999999.54999997l-1.7 4.26c-.28387298.71277572-.28387298 1.50722428 0 2.22 1.63 4.16 1.63 3.99 1.63 4.28v9.61c-1.1045695 0-2 .8954305-2 2v27c0 1.1045695.8954305 2 2 2v3c0 2.7614237 2.23857625 5 5 5s5-2.2385763 5-5v-3c1.1045695 0 2-.8954305 2-2v-27c0-1.1045695-.8954305-2-2-2z"/><rect id="Rectangle-path" height="24" rx="1" width="4" x="27" y="31"/><path id="Shape" d="m36 3h-14c-.5522847 0-1 .44771525-1 1v13.08c-.0000192.2923118.1278622.5699973.35.76l4.9 4.2c1.1106888.9500134 1.7500962 2.3384409 1.75 3.8v2.16c0 .5522847.4477153 1 1 1s1-.4477153 1-1v-2.16c-.0118608-1.4755179.6286265-2.88093 1.75-3.84l4.9-4.2c.2221378-.1900027.3500192-.4676882.35-.76v-13.04c0-.55228475-.4477153-1-1-1zm-11 13c0 .5522847-.4477153 1-1 1s-1-.4477153-1-1v-5c0-.5522847.4477153-1 1-1s1 .4477153 1 1zm0-9c0 .55228475-.4477153 1-1 1s-1-.44771525-1-1v-1c0-.55228475.4477153-1 1-1s1 .44771525 1 1z"/><path id="Shape" d="m28 58c0 .5522847.4477153 1 1 1s1-.4477153 1-1v-1h-2z"/></g></svg>