<svg id="Capa_1" enable-background="new 0 0 512 512" height="512" viewBox="0 0 512 512" width="512" xmlns="http://www.w3.org/2000/svg"><g><path d="m495.553 420.829-36.888-221.329c-8.646-51.873-27.109-100.802-54.874-145.449l-6.315-18.943c-.873-2.621-1.316-5.352-1.316-8.116v-11.2c0-8.708-7.084-15.792-15.792-15.792h-204.932c-4.142 0-7.5 3.358-7.5 7.5s3.358 7.5 7.5 7.5h204.933c.436 0 .792.355.792.792v11.2c0 4.38.702 8.706 2.086 12.86l3.299 9.896h-56.716v-9.083c0-4.142-3.357-7.5-7.5-7.5s-7.5 3.358-7.5 7.5v9.083h-51.33v-9.083c0-4.142-3.357-7.5-7.5-7.5-4.142 0-7.5 3.358-7.5 7.5v9.083h-51.33v-9.083c0-4.142-3.358-7.5-7.5-7.5s-7.5 3.358-7.5 7.5v9.083h-56.715l3.298-9.896c1.385-4.153 2.087-8.48 2.087-12.86v-11.2c0-.437.355-.792.791-.792h13.804c4.142 0 7.5-3.358 7.5-7.5s-3.358-7.5-7.5-7.5h-13.804c-8.707 0-15.791 7.084-15.791 15.792v11.2c0 2.764-.443 5.495-1.317 8.116l-6.315 18.944c-27.764 44.646-46.227 93.575-54.872 145.448l-23.087 138.518c-.681 4.085 2.079 7.95 6.165 8.631 4.089.685 7.95-2.079 8.631-6.165l23.086-138.518c8.142-48.853 25.329-94.997 51.1-137.218h33.499c-30.855 64.085-50.114 132.429-57.281 203.338l-15.187 150.27c-20.796-8.929-35.577-19.168-43.204-29.959l2.986-17.914c.681-4.086-2.079-7.95-6.165-8.631-4.082-.684-7.95 2.08-8.631 6.165l-8.802 52.811c-.068.407-.102.82-.102 1.233 0 21.438 17.894 41.151 51.748 57.008 2.117.991 4.398 1.483 6.678 1.483 2.694 0 5.385-.688 7.791-2.053 2.988-1.695 5.301-4.303 6.657-7.371 6.074 2.172 12.479 4.225 19.151 6.146l-.25 3.162c-.609 7.699 4.372 14.66 11.844 16.553 30.311 7.682 65.678 12.737 102.276 14.62.278.014.556.021.832.021 3.983 0 7.758-1.478 10.706-4.208 3.154-2.922 4.951-6.898 5.058-11.194l.014-.563c5.702.147 11.443.226 17.151.226 5.707 0 11.448-.079 17.15-.226l.226 9.021c.051 2.005.902 3.907 2.364 5.28 1.394 1.308 3.229 2.032 5.134 2.032.095 0 .19-.002.285-.005 39.778-1.514 78.119-6.702 110.877-15.004 7.473-1.893 12.454-8.854 11.845-16.553l-.25-3.162c6.672-1.921 13.076-3.974 19.151-6.146 1.356 3.069 3.669 5.676 6.658 7.371 2.406 1.365 5.096 2.053 7.79 2.053 2.279 0 4.561-.492 6.679-1.483 33.853-15.856 51.746-35.569 51.746-57.008 0-.412-.035-.825-.102-1.232zm-102.784-356.081c25.771 42.22 42.958 88.365 51.1 137.218l31.072 186.433c-7.628 10.791-22.409 21.029-43.203 29.957l-15.187-150.27c-7.165-70.907-26.424-139.251-57.281-203.338zm-109.753 225.608c-1.884-75.197-8.066-151.049-18.387-225.609h76.511l15.24 71.115c5.479 25.575 9.305 51.768 11.367 77.85l17.377 219.799c-29.308 7.156-62.974 11.777-98.187 13.476zm-11.486 140.58c-10.317.245-20.743.245-31.059 0l3.51-140.204c1.452-58.01 5.485-116.418 12.02-174.313 6.534 57.892 10.567 116.301 12.019 174.313zm111.17-218.406c-2.114-26.739-6.035-53.591-11.653-79.81l-.287-1.338c15.728 44.541 26.073 90.788 30.866 138.212l13.988 138.408c-5.419 1.887-11.109 3.685-17.035 5.373zm-153.714 77.826-3.922 156.63c-35.157-1.698-68.91-6.332-98.187-13.483l17.377-219.79c2.062-26.079 5.887-52.271 11.368-77.85l15.239-71.115h76.512c-10.322 74.565-16.505 150.417-18.387 225.608zm-87.745-158.975-.287 1.339c-5.619 26.222-9.54 53.075-11.654 79.81l-15.879 200.846c-5.927-1.689-11.616-3.486-17.035-5.373l13.988-138.408c4.793-47.426 15.139-93.674 30.867-138.214zm-66.081 334.073c-.352.198-.608.078-.705.032-27.443-12.854-42.715-28.049-43.103-42.849l2.555-15.331c10.538 9.841 25.677 18.87 44.779 26.645l-3.121 30.885c-.01.103-.041.411-.405.618zm16.374-9.447 3.303-32.684c5.559 1.862 11.366 3.629 17.379 5.288l-2.64 33.393c-6.316-1.88-12.341-3.888-18.042-5.997zm132.049 40.412c-.163.151-.349.229-.574.211-35.631-1.833-69.989-6.736-99.362-14.18-.364-.092-.606-.441-.575-.83l2.607-32.977c29.736 7.074 63.719 11.659 99.009 13.344l-.848 33.867c-.005.222-.092.413-.257.565zm15.643-15.77.869-34.718c5.294.126 10.609.214 15.905.214s10.611-.087 15.905-.213l.869 34.718c-11.141.285-22.407.285-33.548-.001zm149.126 1.801c-29.677 7.522-64.163 12.409-100.171 14.219l-.868-34.684c35.348-1.687 69.241-6.263 99.008-13.344l2.607 32.98c.03.388-.211.737-.576.829zm11.432-53.838c6.013-1.66 11.82-3.427 17.379-5.288l3.303 32.683c-5.701 2.11-11.726 4.117-18.042 5.998zm37.762 36.874c-.097.045-.354.166-.706-.032-.364-.207-.395-.516-.405-.616l-3.122-30.886c19.102-7.775 34.24-16.803 44.779-26.644l2.555 15.33c-.387 14.8-15.658 29.994-43.101 42.848z"/></g></svg>