<svg height="512pt" viewBox="0 0 512.23681 512" width="512pt" xmlns="http://www.w3.org/2000/svg"><path d="m298.902344 85.453125c-51.460938.074219-101.171875 18.703125-140.015625 52.460937l3.484375-51.78125v-.117187c.054687-1.027344-.078125-2.050781-.394532-3.03125 0-.074219 0-.152344 0-.230469-.085937-.246094-.273437-.410156-.367187-.648437-.167969-.480469-.378906-.945313-.628906-1.390625l-51.203125-76.800782c-.195313-.230468-.441406-.382812-.621094-.570312-.359375-.445312-.765625-.851562-1.210938-1.210938-.214843-.179687-.34375-.425781-.574218-.582031-.246094-.121093-.5-.230469-.757813-.324219-.453125-.246093-.925781-.445312-1.417969-.597656-.273437-.132812-.558593-.25-.851562-.347656-.300781-.019531-.605469-.019531-.90625 0-.324219-.035156-.542969-.164062-.800781-.164062-.257813 0-.476563.128906-.726563.144531-.304687-.015625-.609375-.015625-.910156 0-.316406.105469-.625.230469-.921875.367187-.488281.152344-.964844.347656-1.417969.582032-.265625.097656-.523437.214843-.777344.339843-.136718.105469-.203124.273438-.367187.375-.160156.105469-.136719.148438-.203125.207031-.445312.355469-.851562.761719-1.210938 1.203126-.179687.222656-.429687.339843-.582031.578124l-51.199219 76.800782c-.25.445312-.460937.910156-.632812 1.390625-.09375.238281-.28125.402343-.367188.648437v.230469c-.320312.976563-.460937 2.003906-.417968 3.03125v.117187l16.480468 246.785157h-2.671874c-13.722657-12.101563-34.546876-11.230469-47.210938 1.972656-12.667969 13.207031-12.667969 34.050781 0 47.253906 12.664062 13.207031 33.488281 14.074219 47.210938 1.972657h11.792968v8.535156c.003906 4.941406 1.453125 9.777344 4.164063 13.910156-2.851563 3.207031-4.34375 7.398438-4.164063 11.6875v25.867188c-5.511718 7.296874-8.507812 16.1875-8.535156 25.335937 0 23.5625 19.105469 42.664063 42.667969 42.664063s42.667969-19.101563 42.667969-42.664063c-.027344-9.148437-3.023438-18.039063-8.535157-25.335937v-6.828126c40.335938 47.675782 99.6875 75.066407 162.132813 74.828126 117.820312 0 213.335937-95.511719 213.335937-213.332032 0-117.820312-95.515625-213.332031-213.335937-213.332031zm-128 213.332031c-.34375-62.859375 44.765625-116.773437 106.699218-127.519531 61.9375-10.75 122.574219 24.8125 143.425782 84.113281 20.855468 59.300782-4.175782 124.988282-59.207032 155.371094-55.027343 30.386719-123.953124 16.574219-163.03125-32.664062 7.082032-9.984376 8.230469-23.007813 3.011719-34.078126-5.222656-11.066406-16.003906-18.464843-28.210937-19.351562-1.777344-8.507812-2.675782-17.175781-2.6875-25.871094zm-17.066406 59.734375c0-9.425781 7.640624-17.066406 17.066406-17.066406 9.425781 0 17.066406 7.640625 17.066406 17.066406s-7.640625 17.066407-17.066406 17.066407c-9.425782 0-17.066406-7.640626-17.066406-17.066407zm-15.855469-8.535156c-1.613281 5.574219-1.613281 11.492187 0 17.066406h-70.6875c1.613281-5.574219 1.613281-11.492187 0-17.066406zm-24.574219 68.265625c2.101562-.046875 4.203125.007812 6.296875.171875v11.988281c-10.867187-4.824218-23.265625-4.824218-34.132813 0v-11.996094c2.09375-.167968 4.195313-.226562 6.296876-.171874h21.539062zm-10.769531-324.726562-37.90625-12.636719 29.371093-44.074219v23.039062c0 4.714844 3.824219 8.535157 8.535157 8.535157 4.714843 0 8.535156-3.820313 8.535156-8.535157v-23.039062l29.371094 44.046875zm-41.8125 4.046874 33.277343 11.09375v104.789063c0 4.710937 3.824219 8.53125 8.535157 8.53125 4.714843 0 8.535156-3.820313 8.535156-8.53125v-104.78125l33.277344-11.09375-8.53125 128.078125v.125l-7.125 107.136719h-17.621094v-85.332031c0-4.714844-3.820313-8.535157-8.535156-8.535157-4.710938 0-8.535157 3.820313-8.535157 8.535157v85.332031h-17.621093zm-43.519531 260.949219c0-9.425781 7.640624-17.066406 17.066406-17.066406 9.425781 0 17.066406 7.640625 17.066406 17.066406s-7.640625 17.066407-17.066406 17.066407c-4.527344 0-8.867188-1.800782-12.070313-5-3.199219-3.199219-4.996093-7.542969-4.996093-12.066407zm102.398437 25.597657v8.535156c0 4.710937-3.820313 8.53125-8.53125 8.53125h-17.070313c-4.710937 0-8.53125-3.820313-8.53125-8.53125v-8.535156zm-17.066406 110.933593c-14.136719 0-25.601563-11.460937-25.601563-25.597656 0-14.140625 11.464844-25.601563 25.601563-25.601563s25.601562 11.460938 25.601562 25.601563c0 14.136719-11.464843 25.597656-25.601562 25.597656zm196.265625 0c-66.96875.238281-129.359375-33.960937-165.179688-90.546875 1.972656-3.640625 3.019532-7.710937 3.046875-11.851562v-8.535156h11.792969c10.125 9.125 24.789062 11.152343 37.011719 5.121093 45.914062 57.519531 127.59375 71.609375 190.128906 32.800781 62.53125-38.8125 86.160156-118.257812 54.996094-184.933593-31.167969-66.675781-107.273438-99.507813-177.15625-76.425781-69.886719 23.082031-111.464844 94.785156-96.789063 166.90625-2.972656 1.382812-5.734375 3.191406-8.191406 5.367187h-2.671875l6.964844-104.535156c27.214843-55.925781 83.855469-91.511719 146.046875-91.765625 4.714844 0 8.535156-3.820313 8.535156-8.535156 0-4.710938-3.820312-8.53125-8.535156-8.53125-56.546875.21875-109.714844 26.960937-143.605469 72.226562l1.953125-28.707031c61.796875-64.589844 159.429688-79.265625 237.480469-35.695313 78.050781 43.570313 116.800781 134.378906 94.253906 220.878906-22.542969 86.5-100.691406 146.835938-190.082031 146.761719zm0 0"/><path d="m298.902344 384.117188c47.128906 0 85.335937-38.203126 85.335937-85.332032s-38.207031-85.332031-85.335937-85.332031-85.332032 38.203125-85.332032 85.332031c.050782 47.105469 38.226563 85.28125 85.332032 85.332032zm-33.980469-26.214844c.410156-.117188.8125-.265625 1.195313-.449219l32.785156-18.125 32.785156 18.125c.382812.179687.777344.335937 1.179688.46875-21.007813 12.183594-46.933594 12.183594-67.945313 0zm44.714844-84.4375c1.210937 2.578125 3.621093 4.382812 6.4375 4.816406l24.855469 3.796875-18.269532 18.722656c-1.890625 1.9375-2.75 4.664063-2.3125 7.335938l4.265625 25.875-21.535156-11.949219c-2.570313-1.421875-5.691406-1.421875-8.261719 0l-21.539062 11.949219 4.265625-25.875c.441406-2.671875-.417969-5.398438-2.3125-7.335938l-18.269531-18.722656 24.859374-3.796875c2.8125-.433594 5.226563-2.238281 6.433594-4.816406l10.648438-22.859375zm34.628906 76.195312c.023437-.347656.023437-.699218 0-1.050781l-6.355469-38.976563 26.863282-27.523437c.085937-.082031.125-.195313.203124-.28125 6.496094 24.703125-1.507812 50.957031-20.683593 67.832031zm15.359375-81.996094-36.4375-5.5625-14.453125-30.796874c21.828125 3.199218 40.765625 16.742187 50.859375 36.359374zm-70.484375-36.359374-14.488281 30.785156-36.4375 5.566406c10.097656-19.625 29.054687-33.164062 50.890625-36.351562zm-56.285156 50.523437c.078125.085937.121093.199219.203125.28125l26.863281 27.523437-6.355469 38.976563c-.023437.351563-.023437.703125 0 1.050781-19.175781-16.875-27.183594-43.128906-20.683594-67.832031zm0 0"/><path d="m111.171875 469.453125c0 4.710937-3.820313 8.53125-8.535156 8.53125-4.710938 0-8.535157-3.820313-8.535157-8.53125 0-4.714844 3.824219-8.535156 8.535157-8.535156 4.714843 0 8.535156 3.820312 8.535156 8.535156zm0 0"/></svg>