<?xml version="1.0" encoding="iso-8859-1"?>
<!-- Generator: Adobe Illustrator 19.0.0, SVG Export Plug-In . SVG Version: 6.00 Build 0)  -->
<svg version="1.1" id="Capa_1" xmlns="http://www.w3.org/2000/svg" xmlns:xlink="http://www.w3.org/1999/xlink" x="0px" y="0px"
	 viewBox="0 0 512 512" style="enable-background:new 0 0 512 512;" xml:space="preserve">
<g>
	<g>
		<path d="M512,136.001v-30c0-6.61-4.327-12.441-10.653-14.357c-6.325-1.916-13.161,0.536-16.828,6.036
			c-23.016,34.523-57.468,60.486-97.649,73.772c-24.352-22.041-53.928-37.661-85.87-45.226V106c0-8.284-6.716-15-15-15h-60
			c-8.284,0-15,6.716-15,15v20.226c-31.942,7.565-61.518,23.185-85.87,45.226c-40.182-13.286-74.633-39.249-97.649-73.772
			c-3.667-5.5-10.501-7.953-16.828-6.036C4.327,93.56,0,99.391,0,106.001v30c0,51.996,24.854,100.576,67.004,132.027
			C63.051,283.603,61,299.712,61,316.001v15H46c-8.284,0-15,6.716-15,15v60c0,8.284,6.716,15,15,15h420c8.284,0,15-6.716,15-15v-60
			c0-8.284-6.716-15-15-15h-15v-15c0-16.289-2.051-32.397-6.004-47.973C487.146,236.577,512,187.997,512,136.001z M211,157.192
			v173.809H91v-15C91,241.55,140.113,177.064,211,157.192z M30.561,148.178c20.549,20.167,45.149,36.186,72.339,47.059
			c-10.364,13.132-18.931,27.479-25.56,42.649C50.529,214.828,33.762,182.809,30.561,148.178z M213.58,391.001H61v-30.1h152.58
			c-1.665,4.695-2.58,9.842-2.58,15.1S211.915,386.306,213.58,391.001z M256,391.001c-8.271,0-15-6.729-15-15s6.729-15,15-15
			s15,6.729,15,15S264.271,391.001,256,391.001z M271,331.001h-30v-210h30V331.001z M301,157.192
			c70.701,19.819,120,84.159,120,158.809v15H301V157.192z M451,361.001v30H298.42c1.665-4.695,2.58-9.742,2.58-15
			s-0.915-10.305-2.58-15H451z M434.66,237.885c-6.629-15.17-15.197-29.517-25.56-42.649c27.19-10.873,51.79-26.892,72.339-47.059
			C478.238,182.809,461.471,214.828,434.66,237.885z"/>
	</g>
</g>
<g>
</g>
<g>
</g>
<g>
</g>
<g>
</g>
<g>
</g>
<g>
</g>
<g>
</g>
<g>
</g>
<g>
</g>
<g>
</g>
<g>
</g>
<g>
</g>
<g>
</g>
<g>
</g>
<g>
</g>
</svg>
