<svg id="Capa_1" enable-background="new 0 0 511.965 511.965" height="512" viewBox="0 0 511.965 511.965" width="512" xmlns="http://www.w3.org/2000/svg"><g><path d="m503.65 334.087-112.664-55.867v-50.695c0-74.439-60.561-135-135-135s-135 60.561-135 135v10.458l-32.519-48.778c-4.596-6.893-13.91-8.756-20.801-4.161-6.893 4.596-8.756 13.909-4.161 20.801l28.669 43.003-69.48-34.74c-7.409-3.705-16.42-.702-20.125 6.708-3.705 7.41-.701 16.419 6.708 20.125l100.252 50.126c-32.368 25.815-61.933 34.648-97.485 41.749-13.464 2.693-16.52 20.671-4.658 27.642l48.319 28.392c61.212 36.7 136.036 40.507 200.303 10.723 64.462 29.762 140.388 25.799 201.318-10.76l47.375-28.425c10.167-6.081 9.519-21.046-1.051-26.301zm-352.664-91.562h210v30h-210zm105-120c52.804 0 96.623 39.184 103.924 90h-207.848c7.301-50.816 51.12-90 103.924-90zm-184.907 240.563c-.039-.024-16.217-9.53-16.217-9.53 39.71-12.632 68.292-33.197 87.201-51.033h230.409l60.5 30h-61.736c-38.862 0-77.018 10.568-110.342 30.563-58.542 35.124-131.274 35.124-189.815 0zm219.89 17.842c24.966-12.066 52.4-18.405 80.266-18.405h71.596l-.938.563c-45.379 27.227-100.942 33.355-150.924 17.842z"/></g></svg>